<svg xmlns="http://www.w3.org/2000/svg" xmlns:serif="http://www.serif.com/" fill-rule="evenodd" clip-rule="evenodd" viewBox="0 0 556 153">
  <path fill="none" stroke="#000" stroke-width=".57" d="M101.03 436.53s-39.57-.07-48.84 0c-3.48.02-7.83 3.4-7.85 6.88-.07 10.91-.03 46.32 0 57.21 0 3.83 4.02 8.38 7.85 8.39h48.77l.07-21.83s-24.01-.02-29.42 0c-1.83 0-3.05-2.74-3.03-4.58.06-4.27.03-16.89 0-21.28 0-1.75 1.27-4.44 3.02-4.44h29.43v-20.35z" transform="matrix(1.32859 0 0 1.31049 -57.3 -515.67)"/>
  <path fill="none" stroke="#000" stroke-width=".57" d="M168.7 436.53c-9.73-.04-40-.05-49.96 0-3.9.02-9.55 2.92-9.53 6.84.03 11.14 0 47.67 0 58.41 0 4 5.55 7.22 9.53 7.23h58.36v-21.83h-42.34c-2.34 0-2.34-7.03 0-7.03h42.34v-36.78c0-3.62-4.8-6.83-8.4-6.84z" transform="matrix(1.32859 0 0 1.31049 -57.3 -515.67)" serif:id="e border"/>
  <path fill="none" stroke="#000" stroke-width=".72" d="M134.06 467.22h21.38v-6.96c0-.86-1-1.78-1.87-1.78h-17.55c-.88 0-1.96.9-1.96 1.78v6.96z" transform="matrix(1.32859 0 0 1.40786 -57.3 -560.62)" serif:id="e hole"/>
  <path fill="none" stroke="#000" stroke-width=".57" d="M186.88 509h24.73v-46.97c0-2.58-.07-4.35 1.53-4.35 3.15 0 14.17-.02 17.48 0 1.83 0 1.83 1.92 1.83 4.35v46.86l23.83.12v-65.64c0-3.11-3.23-6.84-6.34-6.84-10.61 0-45.19-.02-55.74 0-3.34 0-7.32 3.5-7.32 6.84V509z" transform="matrix(1.32859 0 0 1.31049 -57.3 -515.67)"/>
  <path fill="none" stroke="#000" stroke-width=".54" d="M265.07 436.53h23.5v48.16c0 1.19 1.36 2.49 2.55 2.49h14.44l.16 21.84s-22.72-.02-29.65 0c-12.1.04-11.03-8.58-11.04-13.1l.04-59.4z" transform="matrix(1.32859 0 0 1.31049 -57.3 -515.67)" serif:id="t bottom"/>
  <path fill="none" stroke="#000" stroke-width=".57" d="M311.77 436.53h23.37v47.98c0 1.09.8 2.66 1.9 2.67h17.14c1.02 0 1.5-1.65 1.5-2.67v-47.98h23.68v64.36c0 3.45-2.75 8.12-6.51 8.12h-54.7c-3.5 0-6.38-4.88-6.38-8.12v-64.36z" transform="matrix(1.32859 0 0 1.31049 -57.3 -515.67)"/>
  <path fill="none" stroke="#000" stroke-width=".55" d="M429.99 436.53v19.55h-14c-2.07 0-4.07 2.63-4.07 4.71v48.23h-22.8v-65.03c0-4.1 5.67-7.46 9.77-7.46h31.1z" transform="matrix(1.32859 0 0 1.31049 -57.3 -515.67)"/>
  <path fill="none" stroke="#000" stroke-width=".57" d="M436.08 436.53h23.59V509l-23.6-.24v-72.24z" transform="matrix(1.32859 0 0 1.31049 -57.3 -515.67)" serif:id="i bar"/>
  <path fill="none" stroke="#000" stroke-linecap="round" stroke-linejoin="round" stroke-miterlimit="1.5" d="M324.15 2.8a2.3 2.3 0 0 0-2.31-2.3h-23.98a2.3 2.3 0 0 0-2.3 2.3v11.88a2.3 2.3 0 0 0 2.3 2.31h23.98a2.3 2.3 0 0 0 2.3-2.3V2.8z" serif:id="t top 2"/>
  <path fill="none" stroke="#000" stroke-width=".58" d="M191.06 408.84h268.6v22.08h-268.6c-1.4 0-1.5-3.35 0-3.35h244.9c2.02 0 2-3.12 0-3.11-40.82.2-204.19.03-244.9 0-1.43 0-1.4-3.12 0-3.12h244.9c2.11 0 2-3.11 0-3.11h-244.9c-1.44 0-1.35-3.12 0-3.12 40.84-.02 203.95 0 244.9 0 1.84 0 1.85-3.12 0-3.12h-244.9c-1.43 0-1.42-3.15 0-3.15z" transform="matrix(1.32859 0 0 1.29657 -57.2 -507.8)" serif:id="i dot and t swipe"/>
</svg>
