<svg xmlns="http://www.w3.org/2000/svg" xmlns:serif="http://www.serif.com/" fill-rule="evenodd" clip-rule="evenodd" viewBox="0 0 675 250">
  <path fill="none" stroke="#000" stroke-width=".57" d="M101.03 436.53s-39.57-.07-48.84 0c-3.48.02-7.83 3.4-7.85 6.88-.07 10.91-.03 46.32 0 57.21 0 3.83 4.02 8.38 7.85 8.39h48.77l.07-21.83s-24.01-.02-29.42 0c-1.83 0-3.05-2.74-3.03-4.58.06-4.27.03-16.89 0-21.28 0-1.75 1.27-4.44 3.02-4.44h29.43v-20.35z" transform="matrix(1.32859 0 0 1.31049 -2 -472.57)"/>
  <path fill="none" stroke="#000" stroke-width=".57" d="M168.7 436.53c-9.73-.04-40-.05-49.96 0-3.9.02-9.55 2.92-9.53 6.84.03 11.14 0 47.67 0 58.41 0 4 5.55 7.22 9.53 7.23h58.36v-21.83h-42.34c-2.34 0-2.34-7.03 0-7.03h42.34v-36.78c0-3.62-4.8-6.83-8.4-6.84z" transform="matrix(1.32859 0 0 1.31049 -2 -472.57)" serif:id="e border"/>
  <path fill="none" stroke="#000" stroke-width=".72" d="M134.06 467.22h21.38v-6.96c0-.86-1-1.78-1.87-1.78h-17.55c-.88 0-1.96.9-1.96 1.78v6.96z" transform="matrix(1.32859 0 0 1.40786 -2 -517.52)" serif:id="e hole"/>
  <path fill="none" stroke="#000" stroke-width=".57" d="M186.88 509h24.73v-46.97c0-2.58-.07-4.35 1.53-4.35 3.15 0 14.17-.02 17.48 0 1.83 0 1.83 1.92 1.83 4.35v46.86l23.83.12v-65.64c0-3.11-3.23-6.84-6.34-6.84-10.61 0-45.19-.02-55.74 0-3.34 0-7.32 3.5-7.32 6.84V509z" transform="matrix(1.32859 0 0 1.31049 -2 -472.57)"/>
  <path fill="none" stroke="#000" stroke-width=".54" d="M265.07 436.53h23.5v48.16c0 1.19 1.36 2.49 2.55 2.49h14.44l.16 21.84s-22.72-.02-29.65 0c-12.1.04-11.03-8.58-11.04-13.1l.04-59.4z" transform="matrix(1.32859 0 0 1.31049 -2 -472.57)" serif:id="t bottom"/>
  <path fill="none" stroke="#000" stroke-width=".57" d="M311.77 436.53h23.37v47.98c0 1.09.8 2.66 1.9 2.67h17.14c1.02 0 1.5-1.65 1.5-2.67v-47.98h23.68v64.36c0 3.45-2.75 8.12-6.51 8.12h-54.7c-3.5 0-6.38-4.88-6.38-8.12v-64.36z" transform="matrix(1.32859 0 0 1.31049 -2 -472.57)"/>
  <path fill="none" stroke="#000" stroke-width=".55" d="M429.99 436.53v19.55h-14c-2.07 0-4.07 2.63-4.07 4.71v48.23h-22.8v-65.03c0-4.1 5.67-7.46 9.77-7.46h31.1z" transform="matrix(1.32859 0 0 1.31049 -2 -472.57)"/>
  <path fill="none" stroke="#000" stroke-width=".57" d="M436.08 436.53h23.59V509l-23.6-.24v-72.24z" transform="matrix(1.32859 0 0 1.31049 -2 -472.57)" serif:id="i bar"/>
  <path fill="none" stroke="#000" stroke-linecap="round" stroke-linejoin="round" stroke-miterlimit="1.5" d="M379.46 45.91a2.3 2.3 0 0 0-2.3-2.3h-23.99a2.3 2.3 0 0 0-2.3 2.3v11.87a2.3 2.3 0 0 0 2.3 2.31h23.98a2.3 2.3 0 0 0 2.31-2.3V45.9z" serif:id="t top 2"/>
  <path fill="none" stroke="#000" stroke-width=".58" d="M191.06 408.84h268.6v22.08h-268.6c-1.4 0-1.5-3.35 0-3.35h244.9c2.02 0 2-3.12 0-3.11-40.82.2-204.19.03-244.9 0-1.43 0-1.4-3.12 0-3.12h244.9c2.11 0 2-3.11 0-3.11h-244.9c-1.44 0-1.35-3.12 0-3.12 40.84-.02 203.95 0 244.9 0 1.84 0 1.85-3.12 0-3.12h-244.9c-1.43 0-1.42-3.15 0-3.15z" transform="matrix(1.32859 0 0 1.29657 -1.9 -464.7)" serif:id="i dot and t swipe"/>
  <path fill="none" stroke="#000" stroke-linecap="round" stroke-linejoin="round" stroke-miterlimit="1.5" d="M64.27 91.39l177.65.05s1.59.08 2.86-.46c.29-.13.97-.68 1.27-1.47.35-.95.29-2.15.29-2.15V65.91c0-2.48 1.7-6.17 4.18-6.17 15.88-.03 73.27 0 91.08 0 2.5 0 3.81.2 3.87-2.27.12-5.5 0-16.2 0-16.2 0-1.85 1.5-3.35 3.34-3.35h32.88c1.84 0 3.34 1.5 3.34 3.34 0 0-.1 11.5-.04 16.14.04 2.6 1.77 2.33 4.09 2.33 36.99.05 180.44.02 217.88 0 3.37 0 6.47 4.41 6.46 7.78l.04 34.83v87.67c0 8.96-2.1 10.96-10.96 10.96H64.27c-9.45 0-12.15-1.82-12.15-10.96v-87.67c0-9.14 2.57-10.95 12.15-10.95z" serif:id="Letter Outline"/>
  <path fill="none" stroke="#000" stroke-linecap="round" stroke-linejoin="round" stroke-miterlimit="1.5" stroke-width=".96" d="M687.7 29.49c0-16.65-15.88-30.17-35.44-30.17H35.04C15.5-.68-.39 12.84-.39 29.49v155.14c0 16.65 15.88 30.16 35.43 30.16h617.22c19.56 0 35.44-13.51 35.44-30.16V29.49z" transform="matrix(.9557 0 0 1.12264 .98 1.08)" serif:id="Factory Outline"/>
  <g fill="none" stroke="#000" stroke-linecap="round" stroke-linejoin="round" stroke-miterlimit="1.5" serif:id="Registered Trademark">
    <path d="M604.86 40.18l-2.48.07.03-19.42 13.79-.03h1.7c1.05 0 3.1 2.7 3.16 5.42.09 3.55-2.11 6.08-3.2 6.1l-1.7-.02 3.3 7.9h-2.52l-3.24-7.9-8.85-.02v7.9z" serif:id="R outline"/>
    <path d="M604.9 23.15l10.6-.06h.5c.58.02 2.43.72 2.43 3.12 0 3.35-1.8 3.47-2.43 3.47h-.52l-10.58-.05v-6.48z" serif:id="Inner hole"/>
    <ellipse cx="612.91" cy="31.8" stroke-width="1.01" rx="14.66" ry="16.08" transform="matrix(1.03262 0 0 .9424 -22.22 -.31)" serif:id="Inner R Circle"/>
    <ellipse cx="612.91" cy="31.8" stroke-width=".9" rx="14.66" ry="16.08" transform="matrix(1.15974 0 0 1.05748 -100.13 -3.97)" serif:id="Outer R Circle"/>
  </g>
</svg>
