<svg xmlns="http://www.w3.org/2000/svg" xmlns:serif="http://www.serif.com/" fill-rule="evenodd" stroke-linecap="round" stroke-linejoin="round" stroke-miterlimit="1.5" clip-rule="evenodd" viewBox="0 0 563 165">
  <path fill="none" stroke="#000" d="M12.65 53.97c31.49 0 177.65.06 177.65.06s1.58.08 2.85-.47c.3-.12.98-.68 1.28-1.46.35-.95.29-2.15.29-2.15V28.5c-.01-2.49 1.69-6.18 4.17-6.18 15.89-.02 73.28 0 91.09 0 2.5 0 3.8.2 3.86-2.27.13-5.49 0-16.2 0-16.2 0-1.85 1.5-3.35 3.35-3.35h32.87c1.85 0 3.35 1.5 3.35 3.35 0 0-.11 11.5-.04 16.13.04 2.6 1.77 2.33 4.08 2.34 37 .05 180.44.01 217.89 0 3.37 0 6.46 4.4 6.46 7.78l.03 34.83v87.67c0 8.95-2.1 10.95-10.96 10.95H12.65C3.19 163.55.5 161.73.5 152.6V64.93c0-9.15 2.57-10.96 12.15-10.96z" serif:id="Letter Outline"/>
</svg>
